<svg fill="none" height="15" viewBox="0 0 15 15" width="15" xmlns="http://www.w3.org/2000/svg" xmlns:xlink="http://www.w3.org/1999/xlink"><clipPath id="a"><path d="m.625 0h13.6957v15h-13.6957z"/></clipPath><g clip-path="url(#a)" fill="#fff"><path d="m11.7734 2.32277c.0201-.35069.0678-.58201.1641-.79326.0381-.08361.0737-.15204.0793-.15204.0054 0-.0111.06171-.0369.13714-.0699.20501-.0814.48542-.0332.81167.0611.41395.0959.47368.5362.92083.2064.20975.4466.47427.5336.58784l.1584.2065-.1584-.14758c-.1936-.18047-.6387-.53243-.7371-.58275-.066-.03374-.0757-.03315-.1164.00709-.0375.03707-.0454.09278-.0506.35617-.0081.4105-.0644.67398-.2002.93743-.0735.14249-.0852.11208-.0187-.04875.0497-.12009.0547-.17288.0544-.57027-.0008-.79844-.0962-.9904-.6554-1.31922-.1417-.0833-.3752-.20344-.5188-.26698-.1437-.06355-.2578-.1189-.2536-.12304.0158-.01565.5612.14257.7808.22651.3266.12485.3805.14103.4201.12597.0267-.0101.0395-.08705.0524-.31326z"/><path clip-rule="evenodd" d="m11.3751 8.6073c.001.00051.0019.00103.0029.00154z" fill-rule="evenodd"/><path d="m6.33049 6.16961c.07787-.10997.0438-.22881-.08862-.30919-.2522-.15306-.63357-.0264-.63357.21039 0 .11787.19888.24647.38118.24647.12133 0 .28738-.07191.34101-.14767z"/><g clip-rule="evenodd" fill-rule="evenodd"><path d="m6.93417 4.29766c.00733.00806.01443.01587.02117.02337zm-.60368 1.87195c.07787-.10997.0438-.22881-.08862-.30919-.2522-.15306-.63357-.0264-.63357.21039 0 .11787.19888.24647.38118.24647.12133 0 .28738-.07191.34101-.14767z"/><path d="m12.0832 13.5921c-.182.2069-.6566.6587-1.0978.81-.0091.0073-.0181.0145-.0272.0218-.007.0057-.0143.0116-.0214.0173-.061.0494-.123.0996-.1898.1446-.085.0564-.1742.1062-.2667.1492-.0037.0018-.0098.0047-.0135.0065-.0907.0433-.1855.0763-.2827.0989-.1054.0244-.21354.0364-.32236.0355-.58041-.011-.99062-.4453-1.23058-.9361-.00956-.0195-.01894-.0391-.02818-.0588-.05162-.1101-.09867-.2227-.1457-.3352-.08869-.2122-.1774-.4244-.2969-.6204-.27766-.4557-.75275-.8225-1.30913-.7546-.22692.0286-.43965.1311-.56568.3291-.13469.21-.13614.4541-.0497.6632.12642.3058.44083.5366.8014.4757.05162-.0079.10212-.0219.15053-.0417.00643-.0027.0128-.0056.01912-.0086.03622-.0172.07043-.0383.10207-.0631.00186-.0014.00444-.0035.00695-.0055.00204-.0016.00402-.0033.00551-.0045.00667-.0056.0132-.0113.0196-.0171.07253-.0662.12811-.1492.16186-.2418.001-.0028.0025-.007.00346-.0097.03939-.108.04774-.2289.0256-.3417-.0249-.1192-.0949-.224-.19527-.2923.11672.0549.20761.1532.25369.2742.04591.1229.05961.2619.03544.391-.00044.0025-.00114.0063-.0017.0093-.01782.0937-.05304.1852-.1028.2656-.0205.0332-.04353.0648-.06896.0947-.00345.0039-.00755.0085-.01108.0123-.0379.0412-.08022.0781-.1262.11-.00867.006-.01747.0118-.02639.0175-.06034.0381-.12499.0689-.19254.0916-.13703.0471-.28284.0622-.42656.0444-.20179-.0289-.39206-.1118-.55091-.2402-.11645-.0926-.21441-.2028-.31254-.3133-.05999-.0676-.12005-.1352-.18443-.1988-.10466-.1104-.21945-.2102-.34268-.2981-.10573-.0755-.21768-.1421-.33478-.1993-.17484-.0772-.35784-.1342-.54549-.17-.09402-.0196-.19017-.034-.28528-.046-.01041-.0011-.0305-.0046-.05547-.0089-.0786-.0138-.20606-.0355-.23149-.0157-.64755.4036-1.1372.4309-2.12216.2386-.029-.145-.27404-.6039-.51071-1.0254-.01075-.0191-.02192-.0388-.03339-.059-.299366-.5273-.804169-1.4164.44513-2.9685 1.00732-1.25149 1.09166-2.08172 1.14171-2.57438.01253-.12331.02291-.22548.04508-.30781.05915-.2197.18883-.37768.29922-.51215.09624-.11724.19303-.41536.20039-.52219.02817-.40844-.95099-1.94435-2.665823-4.6223445l3.847313 3.3035745c.09806.06542.23616.10089.35919.1325.06928.01779.13379.03436.18367.05436.11548.04629.23122.09269.33743.17086-.55169-.60563-.83393-1.40165-.81465-2.13321.00474-.09905.01613-.19782.03408-.29586.04575.00544.0916.01179.13737.01907-.00685-.1022-.01178-.19263-.01178-.24104.44175-.04822.88862.00657 1.30587.16011.00367.00143.0123.00484.01596.00628.33754.13367.65158.31978.93083.55112.06392.05295.12601.10827.18615.16587.21348.20127.41394.41611.60001.64321 1.38553-.27417 2.50918-.0307 3.37268.44197l.0197.00987c.1779.09699.3485.20656.5107.32781.0258.10167.0402.23893.0448.44218-.2156-.18854-.4511-.35291-.7021-.49021l-.0247-.01265c-.7819-.42799-1.80403-.65966-3.08059-.42432.027.03665.0538.07345.0804.11041.01856.02424.03701.04838.05538.07242l.00126.00165.00108.00141c.24686.32304.48107.62903.7703.89947.14977.14168.31672.26378.4968.36338.04831.02465.09506.04688.13923.06569.05383.02299.09764.04135.14301.05777.09216.03598.1979.06964.30296.09974.40227.11523.82107.15863 1.24957.18237.0573.00302.1154.00589.1738.00878.1575.00779.3178.01572.4743.02708.2281.01377.4545.04959.6759.10702.0615.01611.1225.03583.1813.05859-.0933-.16309-.2063-.33299-.3404-.50372l-.0175-.02264c.0392-.12182.0661-.24909.0834-.38915.0585.06543.1153.13239.1704.20081.2669.33978.4752.70252.6017 1.01461.053.13063.0937.25517.1223.37056.0326.13202.0465.25574.0473.35912-.0499-.09322-.1068-.18248-.1702-.26703-.0756-.10296-.1645-.19409-.2637-.27136-.1456-.11329-.3133-.1968-.4939-.24412-.2023-.05246-.4091-.08513-.6176-.09759-.1531-.01115-.3085-.01884-.4654-.0266-.0594-.00293-.119-.00588-.1787-.00903-.4364-.02416-.8832-.06911-1.31958-.19413-.10909-.03126-.21814-.06527-.32345-.10638-.05452-.01974-.10526-.04111-.15926-.06416-.05399-.023-.1091-.04938-.16367-.07733-.20517-.11296-.39526-.25171-.56563-.41288.06795.07676.21397.31706.25399.66544.08928.09583.18826.17723.29553.24701.45563.2964 1.06087.3832 1.70837.47605.7257.10405 1.5043.21571 2.1849.63851 1.3062.81086 1.3947 2.24351 1.0888 3.13359-.0702.20421-.1612.37987-.263.5129.0081-.19214-.0169-.36573-.0697-.52389-.2694-.80722-1.2634-1.21272-2.2922-1.63238-.3992-.16282-.8036-.32778-1.1729-.51915.1429.15173.2733.3428.3777.61018.087.06016.1789.11846.2743.17575.1811.10868.3751.2137.573.32083.779.42165 1.6181.8759 1.9663 1.71378.4817 1.155.063 2.5722-.9346 3.2828-.1467.1044-.3059.1936-.4766.2645zm-5.30667-3.3426c-.2413.099-.46886.2289-.67693.3866.47316-.1725.9699-.2711 1.4728-.2923.07974-.0047.15993-.0086.24072-.0123l.03463-.0016c.15997-.0074.3224-.0149.48828-.0288.27179-.0186.53991-.0739.79698-.1645.26934-.0948.51454-.24837.71784-.44972.20535-.20781.34945-.46878.41625-.75397.0587-.26936.0504-.54914-.0241-.81459-.0745-.2654-.2129-.50826-.40309-.70704.09176.23389.1482.48025.16749.73091.0166.23337-.01498.46768-.09272.68818-.07593.20898-.20004.39693-.36221.54838-.16752.1529-.36145.27366-.5722.3564-.29291.11863-.62415.16717-.96916.21772-.15743.02307-.31773.04656-.47857.07733-.25863.0476-.51192.1211-.75601.2193zm-.96321-3.34853c.37041-.03564 1.1597-.22924.8068-.85378-.07593-.12705-.18602-.23-.31752-.29707-.1315-.06702-.27918-.09538-.42598-.08187-.14901.01607-.28947.07785-.40241.17695-.11288.09904-.19271.23064-.22873.3769-.10962.40852.00657.73372.56784.67887zm1.14202-2.57994c.04517.05035.07773.09112.09473.13065-.02088.01439-.05396.02551-.10367.02874-.057.0037-.12546-.0037-.19888-.01871-.14646-.02995-.29547-.08642-.37988-.12012-.28495-.11579-.53939-.2752-.74933-.46832-.25415-.23134-.46121-.50162-.61881-.79139-.2538-.46666-.37934-.98386-.36671-1.47038.00314-.06493.00926-.12974.01833-.19431.02205.00321.04405.00663.06601.01028.4169.06916.81516.2175 1.07722.46564.29419.27847.40598.64381.49693 1.01297.00705.02727.01399.05479.02092.08251.0022.00882.00441.01768.00662.02657l.00751.03025.00013.00051c.05956.23998.12231.49283.24248.72957.03646.07242.08074.13898.12441.20115.01411.02009.02793.03943.04149.05839.02968.04151.05806.0812.08524.12294.03256.05012.07641.0983.11409.13969.00733.00806.01443.01587.02117.02337zm-3.37684.44902c-.01135.16276-.10271.37085-.15082.44392-.04063.0617-.09215.12436-.13588.17755-.10347.1266-.20797.2653-.24771.41291-.01619.06011-.02383.13464-.036.25327-.00341.03323-.00717.06992-.01158.11072-.01872.17339-.04728.3887-.11477.64352-.13571.51239-.42287 1.16256-1.07312 1.97043-.62117.77175-.76326 1.33823-.74425 1.74773.0181.3899.18057.677.32528.9327.01061.0188.02112.0373.03147.0558.11898.2119.2414.4355.33824.6257.04566.0897.08673.1741.11942.2475.10782-.0202.26377-.0597.51873-.1323.01217-.0034.02457-.007.03718-.0105.27801-.079.65773-.1868.98427-.371.34153-.1927.56904-.4366.6001-.7659.03326-.3525-.09805-.554-.28387-.7177-.10024-.0883-.21449-.1632-.33895-.2438-.11282-.0731-.25795-.16709-.36035-.26437-.40475-.38452-.63974-.97287-.38054-1.6502.08807-.23014.18701-.437.26778-.60589.02263-.04732.04415-.0924.06412-.13533.0948-.2038.1574-.36431.18075-.53637.01188-.08755.0227-.22539.0315-.33764.0098-.12407.02132-.26092.04174-.39169.02023-.12949.05115-.26697.10567-.38974.05477-.12334.1421-.25112.28552-.3308.17398-.09665.38281-.13061.55452-.15854.02909-.00473.05723-.0093.08383-.01396.28661-.0502.63459-.29308.74537-.56602.04791-.11803-.15251-.31483-.58035-.68548s-3.17351-3.178817-3.17351-3.178817c.31441.408187.56421.892917 1.41649 2.176127.85228 1.28322.91108 1.5254.89972 1.68817zm10.3173 4.14312c.0364-.21475.0479-.45179.0219-.69697-.0652-.6153-.3635-1.2548-1.0722-1.69472-.6227-.38686-1.3409-.49025-2.0824-.59695-.0306-.00441-.0613-.00883-.0921-.01328-.5118-.074-1.06128-.15669-1.52848-.39536.0653.37226.2537.65924.51955.90316.41223.37819 1.01073.65209 1.67463.9261.084.03464.1694.06945.2552.10442.5681.23145 1.1654.47476 1.6277.79161.27.18506.5079.40466.6762.67199zm-.6928 1.25323c-.2035-.4897-.6134-.84302-1.1253-1.1608-.2252-.13988-.4605-.26723-.6997-.39676l-.0029-.00154-.0073-.00397c-.0285-.01545-.0571-.03094-.0858-.04648-.1307-.07093-.2625-.1432-.3913-.21802-.0248.29481.039.58002.1608.87068.1619.38604.4152.7586.6898 1.16239.0339.0498.0682.1002.1026.1511.3019.4464.6189.937.7648 1.4683.0724.2636.1024.5354.0734.8153.6513-.6724.8942-1.7451.5209-2.6402zm-4.86287 2.6494c.10551.1731.18717.3548.2609.5286.01784.0421.03511.0834.05211.124.05495.1315.10715.2563.16712.3789.01975.0404.04051.0799.06224.1184.06178.1095.13151.2107.20881.3001-.04734-.0874-.08457-.1792-.11466-.2715-.00258-.0079-.00511-.0158-.00758-.0238-.05933-.1896-.09308-.3916-.11955-.5784-.00793-.0559-.01514-.1098-.0221-.1618-.0171-.1279-.03272-.2446-.05383-.3529-.03865-.1976-.09897-.3903-.17974-.5745-.08504-.1864-.20485-.3545-.35293-.4953-.15214-.1355-.32771-.244-.51647-.3198-.18527-.0758-.37972-.1264-.57821-.1503-.39426-.0484-.79461-.0176-1.17696.0906-.37672.106-.73825.2614-1.0747.462-.19433.1179-.38146.2472-.56042.3871.03515.0061.07048.0127.10586.0201.2027.0387.40407.102.59298.1854.27451.134.52659.3178.7375.5393l.00042.0004.00126.0014c.06884.0683.13443.1421.19457.2098.01826.0206.03601.0406.0532.0597.03645.0405.07168.0785.10701.1141-.06171-.0961-.10842-.2043-.13521-.3183-.0534-.2273-.02761-.4778.11642-.7026.16881-.2649.44683-.3906.71682-.4245.67168-.0821 1.21521.3616 1.51514.8538z"/><path d="m6.93417 4.29766c.00733.00806.01443.01587.02117.02337zm-.60368 1.87195c.07787-.10997.0438-.22881-.08862-.30919-.2522-.15306-.63357-.0264-.63357.21039 0 .11787.19888.24647.38118.24647.12133 0 .28738-.07191.34101-.14767z"/></g><path d="m1.80993 10.0606c.16413.1085.21627.3305.11815.5033-.09397.1653-.27339.2196-.40014.121-.07865-.0612-.08418-.1513-.01562-.2537.0677-.1011.06145-.1507-.02459-.1946-.05111-.0262-.07378-.0558-.07378-.0966 0-.1335.24091-.18182.39598-.0794z"/></g></svg>