<svg fill="none" height="15" viewBox="0 0 14 15" width="14" xmlns="http://www.w3.org/2000/svg"><g fill="#000"><path d="m4.15217 1.55141c-.18805-.02899-.19598-.03239-.10749-.04591.16959-.02592.57004.00941.84599.07462.64422.1522 1.23042.54209 1.85616 1.23454l.16624.18396.23781-.038c1.00186-.16002 2.02106-.03284 2.87352.35856.2345.10768.6043.32203.6505.37711.0147.01755.0417.13055.06.25113.0633.41716.0316.73692-.0967.97575-.0699.12996-.0738.17115-.0268.28237.0375.08876.142.15445.2455.15431.2118-.00029.4399-.34065.5455-.81424l.042-.18811.0831.09359c.456.5135.8142 1.21379.8757 1.71226l.016.12997-.0766-.11815c-.1319-.20331-.2645-.34171-.4342-.45334-.306-.20121-.6295-.26968-1.4862-.31456-.77381-.04052-1.21175-.10621-1.64599-.24695-.73883-.23942-1.11128-.55828-1.98892-1.70272-.38981-.50832-.63075-.78956-.87042-1.01605-.54459-.51464-1.07971-.78454-1.7647-.89014z"/><path d="m10.8494 2.68637c.0195-.34062.0659-.56529.1594-.77047.037-.08121.0716-.14768.077-.14768.0053 0-.0108.05994-.0358.1332-.0679.19912-.0791.47148-.0323.78836.0594.40206.0932.46007.5208.89438.2005.20372.4338.46064.5183.57095l.1538.20057-.1538-.14334c-.188-.17529-.6204-.51714-.7159-.56601-.0641-.03277-.0736-.0322-.1131.00688-.0364.03601-.0441.09012-.0491.34594-.0079.39871-.0626.65462-.1945.9105-.0714.1384-.0827.10886-.0181-.04735.0482-.11664.0531-.16791.0528-.55388-.0008-.77551-.0934-.96195-.6366-1.28133-.1376-.08091-.3644-.19759-.50391-.25931-.13952-.06172-.25034-.11548-.24631-.1195.01538-.01521.54512.13847.75842.22.3172.12126.3695.13698.408.12235.0259-.00981.0384-.08455.0509-.30426z"/><path d="m4.51745 4.01304c-.38176-.52238-.61797-1.32331-.56683-1.92204l.01581-.18528.0869.01576c.16319.02958.44456.13367.57631.21321.36156.21824.51809.50558.67733 1.24342.04665.21612.10785.46069.13601.54349.04533.13327.21664.44457.35592.64674.10032.14561.03368.21461-.18808.19471-.33867-.03038-.79742-.34506-1.09337-.75001z"/><path d="m10.3863 7.90088c-1.78406-.71395-2.41241-1.33367-2.41241-2.37931 0-.15388.00533-.27978.01182-.27978.0065 0 .07553.05078.15339.11286.36178.2884.7669.41158 1.8884.5742.66.0957 1.0314.173 1.374.28592 1.0889.35894 1.7626 1.08735 1.9233 2.07949.0467.28829.0193.82891-.0564 1.11384-.0597.22505-.2421.6307-.2905.6463-.0134.0043-.0265-.0468-.03-.11631-.0183-.37255-.2077-.73524-.5258-1.00693-.3617-.30889-.8476-.55483-2.0358-1.03028z"/><path d="m9.13385 8.19748c-.02236-.13221-.06113-.30105-.08616-.3752l-.04552-.1348.08455.09432c.11702.13053.20948.29757.28785.52005.05981.1698.06654.2203.06609.49622-.00046.27089-.00793.32768-.06316.48051-.08708.24101-.19517.4119-.37653.59533-.3259.32969-.7449.51219-1.34954.58789-.1051.0131-.41143.0353-.68074.0492-.67869.0351-1.12538.1076-1.52676.2477-.0577.0201-.10923.0324-.11446.0272-.01624-.0161.25704-.178.48276-.2861.31827-.1524.6351-.2355 1.34496-.353.35066-.0581.71279-.1285.80475-.15651.86839-.26463 1.31477-.94753 1.17191-1.79281z"/><path d="m9.95169 9.64109c-.23704-.50646-.29147-.99545-.1616-1.45148.0139-.04873.03623-.08861.04967-.08861.01343 0 .06937.03005.12428.06677.10926.07309.32836.19618.91196.51246.7283.39467 1.1436.70027 1.426 1.04942.2473.30575.4003.65405.474 1.07875.0417.2405.0172.8193-.0449 1.0615-.1958.7638-.6509 1.3637-1.3 1.7138-.0951.0513-.1805.0934-.1897.0936-.0093.0002.0254-.0874.077-.1946.2183-.4537.2432-.895.0781-1.3862-.1011-.3008-.3072-.6678-.7233-1.2881-.4839-.7211-.6025-.91301-.72151-1.16731z"/><path d="m3.25046 12.3737c.66206-.5556 1.48583-.9503 2.2362-1.0715.32339-.0522.86211-.0315 1.16157.0447.48001.1221.9094.3956 1.13271.7214.21824.3184.31187.5959.40935 1.2133.03846.2436.08028.4881.09294.5435.07321.32.21567.5757.39221.7042.28039.204.76321.2166 1.23818.0325.08061-.0313.15058-.0529.15548-.048.0173.017-.22191.1761-.39063.2599-.22704.1127-.40757.1563-.64745.1563-.43501 0-.79616-.2199-1.09752-.6684-.05931-.0883-.1926-.3526-.29621-.5875-.31819-.7213-.4753-.941-.84474-1.1815-.32151-.2092-.73614-.2467-1.04806-.0947-.40974.1997-.52406.7201-.2306 1.0499.11664.1311.33414.2441.51199.2661.33273.0412.61867-.2104.61867-.5443 0-.2168-.08384-.3405-.29489-.4352-.28826-.1293-.5981.0218-.59662.291.00064.1148.05092.1868.16667.2389.07426.0334.07598.036.01543.0235-.26448-.0545-.32644-.3714-.11379-.5818.25532-.2525.78326-.1411.96456.2037.07617.1448.08501.4332.0186.6073-.14861.3898-.58195.5947-1.02154.4832-.29929-.076-.42116-.1582-.782-.5276-.62702-.642-.87044-.7664-1.7744-.9066l-.17322-.0269z"/><g clip-rule="evenodd" fill-rule="evenodd"><path d="m.308383.883984c2.093967 2.525976 3.536187 3.568146 3.696457 3.788326.13233.18181.08253.34526-.14417.47336-.12607.07122-.38526.14338-.51503.14338-.14677 0-.19717-.05627-.19717-.05627-.0851-.08023-.13303-.0662-.57007-.83723-.60674-.93574-1.11451-1.71198-1.12836-1.72498-.03203-.03005-.03148-.02904 1.0665 1.92356.1774.40697.03528.55636.03528.61432 0 .11791-.03236.17989-.17871.34214-.24397.27051-.35303.57446-.43176 1.20351-.08825.70516-.33643 1.20327-1.024194 2.05579-.402594.49904-.46847.59051-.570056.79164-.127956.25329-.163139.39516-.177399.71497-.015072.3382.014282.5567.118233.88.091005.2831.185998.47.428844.8438.209573.3226.330242.5624.330242.6562 0 .0746.01434.0747.33909.0018.77717-.1744 1.40823-.4812 1.76314-.8572.21966-.2327.27123-.3612.2729-.68.0011-.2086-.00628-.2523-.06301-.3723-.09234-.1953-.26045-.3577-.63097-.6094-.48547-.32987-.69283-.59542-.7501-.96062-.04699-.29965.00752-.51107.27609-1.07053.27798-.57909.34687-.82586.39347-1.40956.0301-.37711.07178-.52583.18079-.64521.1137-.12448.21605-.16664.49742-.20485.45873-.06228.75083-.18024.99093-.40014.20828-.19077.29544-.37458.30881-.65129l.01016-.20973-.1164-.13488c-.42151-.48848-4.4932397-3.99259-4.51917956-3.99259-.00554149 0 .13316456.172804.30822256.383984zm.975257 9.815216c.0953-.1678.04466-.3834-.11475-.4888-.15062-.0995-.38461-.0526-.38461.0771 0 .0396.022023.0684.071657.0938.083577.0427.089644.0908.023886.189-.066593.0995-.061219.187.015168.2464.123109.0958.297379.0431.388649-.1175z"/><path d="m4.92523 5.99865c-.21535.06574-.42469.29259-.48949.53045-.03953.14511-.0171.39965.04211.47826.09566.12697.18817.16042.43866.15867.49042-.0034.91676-.21245.96633-.47379.04063-.21423-.14662-.51112-.40454-.64146-.13309-.06723-.41613-.0939-.55307-.05213zm.5733.44557c.07563-.10681.04254-.22224-.08608-.30031-.24495-.14866-.61537-.02564-.61537.20435 0 .11448.19317.23939.37023.23939.11785 0 .27913-.06985.33122-.14343z"/></g></g></svg>